o box

g floor

v  -0.50  -0.50   0.50
v   0.50  -0.50   0.50
v   0.50  -0.50  -0.50
v  -0.50  -0.50  -0.50
vn  0.00   1.00   0.00

f 1//1 2//1 3//1 4//1

g ceiling

v  -0.50   0.50   0.50  
v  -0.50   0.50  -0.50
v   0.50   0.50  -0.50
v   0.50   0.50   0.50
vn  0.00  -1.00   0.00

f 5//2 6//2 7//2 8//2

g backWall

v  -0.50  -0.50  -0.50 
v   0.50  -0.50  -0.50
v   0.50   0.50  -0.50
v  -0.50   0.50  -0.50
vn  0.00   0.00   1.00

f 9//3 10//3 11//3 12//3

g rightWall

v	  0.50  -0.50  -0.50   
v	  0.50  -0.50   0.50
v	  0.50   0.50   0.50
v	  0.50   0.50  -0.50
vn -1.00   0.00   0.00

f 13//4 14//4 15//4 16//4

g leftWall

v  -0.50   0.50  -0.50
v  -0.50   0.50   0.50
v  -0.50  -0.50   0.50
v  -0.50  -0.50  -0.50
vn  1.00   0.00   0.00

f 17//5 18//5 19//5 20//5

g end