o Corner
g leftWall

vt 0.0 0.0
vt 0.0 1.0
vt 1.0 0.0
vt 1.0 1.0

v -0.500 -0.500 0.000
v -0.500 0.500 0.000
v -0.500 -0.500 1.000
v -0.500 0.500 1.000
vn 1.000 0.000 0.000

f 2/2/1 4/4/1 3/3/1
f 1/1/1 2/2/1 3/3/1

g floor

v 0.500 -0.500 1.000
v 0.500 -0.500 0.000
v -0.500 -0.500 1.000
v -0.500 -0.500 0.000
vn 0.000 1.000 0.000

f 6/1/2 8/3/2 7/4/2
f 5/2/2 6/1/2 7/4/2

g rightWall

v 0.500 -0.500 0.000
v 0.500 0.500 0.000
v -0.500 -0.500 0.000
v -0.500 0.500 0.000
vn 0.000 0.000 1.000

f 10/1/3 12/3/3 11/4/3
f 9/2/3 10/1/3 11/4/3
